<svg width="100" height="100" version="1.1" xmlns="http://www.w3.org/2000/svg" desc="Created with imagetracer.js version 1.2.6" ><path fill="rgb(230,207,208)" stroke="rgb(230,207,208)" stroke-width="1" opacity="1" d="M 39.5 14 L 42 14.5 L 39.5 15 L 39.5 14 Z " /><path fill="rgb(230,207,208)" stroke="rgb(230,207,208)" stroke-width="1" opacity="1" d="M 34.5 16 L 33.5 18 L 34.5 16 Z " /><path fill="rgb(230,207,208)" stroke="rgb(230,207,208)" stroke-width="1" opacity="1" d="M 55.5 17 L 59.5 22 L 55.5 17 Z " /><path fill="rgb(230,207,208)" stroke="rgb(230,207,208)" stroke-width="1" opacity="1" d="M 31.5 18 L 28.5 22 L 31.5 18 Z " /><path fill="rgb(230,207,208)" stroke="rgb(230,207,208)" stroke-width="1" opacity="1" d="M 36 26 Q 39 25 38 28 Q 35 29 36 26 Z " /><path fill="rgb(230,207,208)" stroke="rgb(230,207,208)" stroke-width="1" opacity="1" d="M 25.5 27 L 26 29.5 L 25 29.5 L 25.5 27 Z " /><path fill="rgb(230,207,208)" stroke="rgb(230,207,208)" stroke-width="1" opacity="1" d="M 24.5 31 L 25 34.5 L 24 34.5 L 24.5 31 Z " /><path fill="rgb(230,207,208)" stroke="rgb(230,207,208)" stroke-width="1" opacity="1" d="M 25.5 37 L 27 41.5 L 26 41.5 L 25.5 37 Z " /><path fill="rgb(230,207,208)" stroke="rgb(230,207,208)" stroke-width="1" opacity="1" d="M 60.5 43 L 61 44.5 L 59 45.5 L 60.5 43 Z " /><path fill="rgb(230,207,208)" stroke="rgb(230,207,208)" stroke-width="1" opacity="1" d="M 29.5 46 L 32.5 50 L 29.5 46 Z " /><path fill="rgb(230,207,208)" stroke="rgb(230,207,208)" stroke-width="1" opacity="1" d="M 58.5 47 L 57.5 49 L 58.5 47 Z " /><path fill="rgb(230,207,208)" stroke="rgb(230,207,208)" stroke-width="1" opacity="1" d="M 35.5 51 L 36.5 53 L 35.5 51 Z " /><path fill="rgb(230,207,208)" stroke="rgb(230,207,208)" stroke-width="1" opacity="1" d="M 55.5 51 L 49.5 58 L 55.5 51 Z " /><path fill="rgb(230,207,208)" stroke="rgb(230,207,208)" stroke-width="1" opacity="1" d="M 51.5 60 L 52 62.5 L 57.5 68 L 69 72.5 L 64.5 73 L 57.5 70 L 52 64.5 L 50 61.5 L 51.5 60 Z " /><path fill="rgb(245,89,99)" stroke="rgb(245,89,99)" stroke-width="1" opacity="1" d="M 42.5 14 L 47 14.5 L 42.5 15 L 42.5 14 Z " /><path fill="rgb(245,89,99)" stroke="rgb(245,89,99)" stroke-width="1" opacity="1" d="M 38.5 15 L 49.5 18 L 56 24.5 L 58 30.5 L 55.5 36 L 44.5 42 L 40.5 42 Q 32.2 40.3 28 34.5 L 26 26.5 L 32.5 18 L 36.5 16 L 38.5 17 L 38.5 15 Z M 36 26 Q 35 29 38 28 Q 39 25 36 26 Z " /><path fill="rgb(245,89,99)" stroke="rgb(245,89,99)" stroke-width="1" opacity="1" d="M 54.5 17 L 59.5 23 L 54.5 17 Z " /><path fill="rgb(245,89,99)" stroke="rgb(245,89,99)" stroke-width="1" opacity="1" d="M 62.5 29 L 63 37.5 L 62 37.5 L 62.5 29 Z " /><path fill="rgb(245,89,99)" stroke="rgb(245,89,99)" stroke-width="1" opacity="1" d="M 28.5 44 L 29.5 46 L 28.5 44 Z " /><path fill="rgb(245,89,99)" stroke="rgb(245,89,99)" stroke-width="1" opacity="1" d="M 56.5 49 L 55.5 51 L 56.5 49 Z " /><path fill="rgb(245,89,99)" stroke="rgb(245,89,99)" stroke-width="1" opacity="1" d="M 49.5 58 Q 52.5 59.5 49.5 61 L 47 60.5 L 49.5 58 Z " /><path fill="rgb(252,249,249)" stroke="rgb(252,249,249)" stroke-width="1" opacity="1" d="M 42.5 13 L 47 13.5 L 42.5 14 L 42.5 13 Z " /><path fill="rgb(252,249,249)" stroke="rgb(252,249,249)" stroke-width="1" opacity="1" d="M 33.5 16 L 32.5 18 L 33.5 16 Z " /><path fill="rgb(252,249,249)" stroke="rgb(252,249,249)" stroke-width="1" opacity="1" d="M 63.5 29 L 64 37.5 L 63 37.5 L 63.5 29 Z " /><path fill="rgb(252,249,249)" stroke="rgb(252,249,249)" stroke-width="1" opacity="1" d="M 60.5 45 L 59.5 47 L 60.5 45 Z " /><path fill="rgb(252,249,249)" stroke="rgb(252,249,249)" stroke-width="1" opacity="1" d="M 58.5 48 L 56.5 51 L 58.5 48 Z " /><path fill="rgb(252,249,249)" stroke="rgb(252,249,249)" stroke-width="1" opacity="1" d="M 33.5 50 L 34.5 52 L 33.5 50 Z " /><path fill="rgb(252,249,249)" stroke="rgb(252,249,249)" stroke-width="1" opacity="1" d="M 45.5 57 L 48 58.5 L 46.5 58 L 45.5 57 Z " /><path fill="rgb(252,249,249)" stroke="rgb(252,249,249)" stroke-width="1" opacity="1" d="M 50.5 58 L 51.5 60 L 50.5 58 Z " /><path fill="rgb(252,249,249)" stroke="rgb(252,249,249)" stroke-width="1" opacity="1" d="M 49.5 61 Q 51 64.5 52.5 62 L 58 67.5 L 52 63.5 L 56 68.5 L 51 64.5 L 49.5 61 Z " /><path fill="rgb(252,249,249)" stroke="rgb(252,249,249)" stroke-width="1" opacity="1" d="M 58.5 70 L 62 71.5 L 60.5 72 L 58.5 70 Z " /><path fill="rgb(252,249,249)" stroke="rgb(252,249,249)" stroke-width="1" opacity="1" d="M 69.5 72 L 72 72.5 L 69.5 73 L 69.5 72 Z " /><path fill="rgb(254,255,255)" stroke="rgb(254,255,255)" stroke-width="1" opacity="1" d="M 47.5 13 L 50 13.5 L 47.5 14 L 47.5 13 Z " /><path fill="rgb(254,255,255)" stroke="rgb(254,255,255)" stroke-width="1" opacity="1" d="M 32.5 16 L 27.5 22 L 32.5 16 Z " /><path fill="rgb(254,255,255)" stroke="rgb(254,255,255)" stroke-width="1" opacity="1" d="M 57.5 18 L 60.5 22 L 57.5 18 Z " /><path fill="rgb(254,255,255)" stroke="rgb(254,255,255)" stroke-width="1" opacity="1" d="M 23.5 32 L 24 34.5 L 23 34.5 L 23.5 32 Z " /><path fill="rgb(254,255,255)" stroke="rgb(254,255,255)" stroke-width="1" opacity="1" d="M 24.5 37 L 25 39.5 L 24 39.5 L 24.5 37 Z " /><path fill="rgb(254,255,255)" stroke="rgb(254,255,255)" stroke-width="1" opacity="1" d="M 30.5 48 L 31.5 50 L 30.5 48 Z " /><path fill="rgb(254,255,255)" stroke="rgb(254,255,255)" stroke-width="1" opacity="1" d="M 57.5 50 L 55.5 53 L 57.5 50 Z " /><path fill="rgb(203,46,49)" stroke="rgb(203,46,49)" stroke-width="1" opacity="1" d="M 39.5 15 Q 55.4 13.6 60 23.5 Q 63.4 28.6 62 38.5 Q 57.8 50.8 49 58.5 L 50.5 61 L 48 57 Q 37 54.1 30 46.5 Q 25.7 41.3 25 32.5 L 26.5 29 Q 27 35.5 31.5 38 Q 35.8 42.2 44.5 42 L 57 34.5 L 58 30.5 Q 56.4 21.6 49.5 18 Q 46.2 15.3 39.5 16 L 37.5 17 L 37.5 16 L 39.5 15 Z " /><path fill="rgb(255,255,255)" stroke="rgb(255,255,255)" stroke-width="1" opacity="1" d="M 0 0 L 100 0 L 100 100 L 0 100 L 0 0 Z M 41 13 L 33 16 Q 25 21 23 33 L 24 36 Q 22 41 26 40 L 25 42 L 30 49 L 35 52 Q 37 51 36 54 L 39 54 L 46 59 L 46 62 L 50 62 L 50 64 Q 54 70 63 73 L 72 73 Q 64 72 59 68 L 52 62 L 51 57 L 56 53 L 62 44 L 64 40 L 63 39 L 64 37 L 64 35 L 65 32 L 61 22 L 58 18 Q 55 19 56 16 Q 52 16 50 13 L 41 13 Z " /></svg>